<?xml version="1.0" encoding="utf-8"?>
<!-- Generator: Adobe Illustrator 16.0.0, SVG Export Plug-In . SVG Version: 6.00 Build 0)  -->
<!DOCTYPE svg PUBLIC "-//W3C//DTD SVG 1.1//EN" "http://www.w3.org/Graphics/SVG/1.1/DTD/svg11.dtd">
<svg version="1.1" id="Capa_1" xmlns="http://www.w3.org/2000/svg" xmlns:xlink="http://www.w3.org/1999/xlink" x="0px" y="0px"
	 width="120px" height="120px" viewBox="0 0 120 120" enable-background="new 0 0 120 120" xml:space="preserve">
<g>
	<path fill="#E75631" d="M84.125,52.476c-0.327,0-0.655-0.117-0.917-0.352c-0.107-0.096-2.636-2.361-3.648-3.451
		c-3.297-3.55-2.467-8.862,0.375-11.598c4.271-4.106,13-13.026,13.088-13.116c0.532-0.543,1.402-0.553,1.946-0.023
		c0.545,0.533,0.554,1.404,0.022,1.948c-0.087,0.09-8.846,9.04-13.146,13.176c-1.609,1.549-2.63,5.193-0.268,7.738
		c0.926,0.997,3.442,3.25,3.467,3.272c0.566,0.508,0.615,1.378,0.108,1.944C84.881,52.319,84.503,52.476,84.125,52.476z"/>
	<path fill="#E75631" d="M72.866,69.234c-2.076,0-3.562-0.893-4.129-1.3c-0.637-0.455-1.326-1.276-2.7-2.916l-1.145-1.361
		c-2.554-3.02-1.151-7.123,0.081-9.072c0.873-1.382,3.973-6.159,7.205-9.589c3.336-3.537,6.388-3.436,6.719-3.414
		c0.759,0.051,1.331,0.709,1.278,1.468c-0.051,0.751-0.74,1.313-1.444,1.281c-0.149-0.014-2.134-0.008-4.547,2.554
		c-3.143,3.333-6.284,8.224-6.881,9.17c-0.775,1.226-1.835,4.02-0.307,5.824l1.153,1.371c1.065,1.272,1.835,2.193,2.191,2.444
		c0.917,0.658,2.858,1.503,5.608-0.198c3.787-2.346,9.184-6.629,10.125-7.525c1.26-1.199,1.825-3.543,1.938-4.346
		c0.054-0.383,0.264-0.726,0.582-0.944c0.318-0.22,0.713-0.298,1.086-0.212c0.028,0.003,1.571,0.226,3.678-1.832
		c4.192-4.092,10.5-10.75,10.564-10.817c0.523-0.552,1.393-0.574,1.945-0.052c0.553,0.523,0.577,1.394,0.053,1.946
		c-0.064,0.067-6.41,6.766-10.638,10.896c-1.901,1.854-3.631,2.427-4.785,2.573c-0.331,1.302-1.057,3.385-2.523,4.783
		c-1.189,1.13-6.767,5.512-10.576,7.87C75.707,68.881,74.17,69.234,72.866,69.234z"/>
	<path fill="#E75631" d="M52.586,88.062c-5.809,0-9.903-2.866-9.974-2.919c-0.352-0.251-0.563-0.654-0.573-1.085
		c-0.009-0.432,0.183-0.842,0.521-1.111c0.048-0.037,5.011-4.064,5.454-9.703c0.545-6.935,3.907-11.364,9.726-12.808
		c5.256-1.306,7.472-0.721,7.708-0.65c0.728,0.22,1.139,0.988,0.92,1.717c-0.221,0.727-0.991,1.141-1.715,0.92l0,0
		c-0.006,0.001-1.814-0.416-6.25,0.684c-4.623,1.151-7.194,4.633-7.644,10.354c-0.375,4.769-3.25,8.445-5.048,10.307
		c3.277,1.608,11.448,4.125,19.907-4.888c2.706-2.883,3.959-9.61,1.533-12.538c-0.484-0.587-0.403-1.455,0.182-1.939
		c0.587-0.485,1.455-0.404,1.939,0.183c3.622,4.372,1.498,12.829-1.646,16.18C62.299,86.438,56.957,88.062,52.586,88.062z"/>
	<path fill="#E75631" d="M59.079,114.318c-0.009,0-0.017,0-0.025,0c-0.313-0.006-0.625-0.015-0.938-0.024
		c-0.759-0.024-1.356-0.661-1.331-1.421c0.025-0.758,0.652-1.385,1.421-1.331c0.298,0.01,0.596,0.016,0.896,0.021
		c0.761,0.015,1.367,0.643,1.353,1.401C60.441,113.718,59.827,114.318,59.079,114.318z M63.662,114.201
		c-0.718,0-1.323-0.558-1.373-1.284c-0.051-0.757,0.523-1.416,1.282-1.467c0.298-0.019,0.594-0.042,0.89-0.067
		c0.762-0.07,1.425,0.496,1.489,1.255c0.065,0.758-0.497,1.423-1.255,1.489c-0.311,0.025-0.625,0.051-0.939,0.071
		C63.725,114.199,63.693,114.201,63.662,114.201z M53.585,113.942c-0.055,0-0.11-0.005-0.167-0.013
		c-0.313-0.036-0.626-0.077-0.938-0.12c-0.753-0.104-1.279-0.8-1.174-1.553c0.104-0.754,0.786-1.28,1.552-1.175
		c0.295,0.04,0.592,0.079,0.889,0.114c0.755,0.092,1.294,0.777,1.202,1.531C54.866,113.427,54.271,113.942,53.585,113.942z
		 M69.125,113.544c-0.656,0-1.235-0.47-1.354-1.139c-0.132-0.75,0.369-1.462,1.118-1.593c0.295-0.053,0.589-0.107,0.884-0.164
		c0.741-0.14,1.466,0.349,1.609,1.096c0.143,0.746-0.348,1.468-1.094,1.611c-0.307,0.058-0.615,0.113-0.922,0.168
		C69.284,113.537,69.205,113.544,69.125,113.544z M48.157,112.996c-0.101,0-0.204-0.011-0.306-0.033
		c-0.309-0.07-0.615-0.145-0.92-0.221c-0.739-0.183-1.188-0.929-1.006-1.666c0.182-0.74,0.93-1.189,1.667-1.005
		c0.289,0.07,0.579,0.139,0.87,0.205c0.741,0.169,1.206,0.906,1.037,1.647C49.354,112.562,48.785,112.996,48.157,112.996z
		 M74.491,112.32c-0.601,0-1.153-0.398-1.323-1.002c-0.208-0.733,0.218-1.492,0.95-1.7c0.286-0.08,0.571-0.165,0.855-0.251
		c0.723-0.219,1.496,0.19,1.717,0.919c0.221,0.726-0.191,1.494-0.918,1.717c-0.3,0.092-0.603,0.18-0.906,0.267
		C74.74,112.304,74.616,112.32,74.491,112.32z M42.857,111.489c-0.148,0-0.298-0.024-0.446-0.074
		c-0.298-0.103-0.595-0.206-0.889-0.313c-0.716-0.257-1.086-1.048-0.829-1.762c0.259-0.715,1.048-1.087,1.764-0.828
		c0.28,0.103,0.563,0.202,0.846,0.298c0.719,0.246,1.103,1.029,0.856,1.749C43.964,111.131,43.43,111.489,42.857,111.489z
		 M79.701,110.544c-0.545,0-1.062-0.325-1.277-0.864c-0.285-0.704,0.058-1.507,0.764-1.79c0.276-0.112,0.55-0.224,0.823-0.34
		c0.702-0.294,1.51,0.034,1.804,0.734c0.296,0.7-0.032,1.507-0.733,1.804c-0.288,0.121-0.577,0.24-0.866,0.355
		C80.045,110.511,79.872,110.544,79.701,110.544z M37.747,109.438c-0.195,0-0.393-0.042-0.579-0.128
		c-0.285-0.134-0.569-0.268-0.852-0.405c-0.684-0.331-0.969-1.156-0.637-1.839c0.333-0.684,1.156-0.97,1.84-0.638
		c0.268,0.13,0.538,0.258,0.809,0.383c0.689,0.321,0.989,1.141,0.669,1.828C38.763,109.142,38.265,109.438,37.747,109.438z
		 M84.689,108.233c-0.493,0-0.97-0.266-1.217-0.732c-0.355-0.674-0.098-1.505,0.575-1.86c0.263-0.141,0.524-0.279,0.784-0.424
		c0.665-0.365,1.503-0.124,1.871,0.543c0.367,0.668,0.124,1.504-0.543,1.871c-0.274,0.149-0.55,0.3-0.827,0.443
		C85.128,108.183,84.907,108.233,84.689,108.233z M32.878,106.863c-0.24,0-0.484-0.063-0.705-0.194
		c-0.269-0.162-0.538-0.324-0.805-0.491c-0.646-0.399-0.844-1.248-0.443-1.896c0.4-0.646,1.252-0.844,1.896-0.441
		c0.253,0.156,0.508,0.312,0.764,0.464c0.652,0.389,0.866,1.236,0.476,1.889C33.803,106.624,33.346,106.863,32.878,106.863z
		 M89.414,105.418c-0.442,0-0.877-0.212-1.143-0.608c-0.424-0.631-0.255-1.486,0.375-1.91c0.248-0.166,0.496-0.335,0.741-0.506
		c0.625-0.429,1.482-0.276,1.916,0.35c0.434,0.623,0.277,1.481-0.347,1.915c-0.256,0.179-0.515,0.353-0.774,0.526
		C89.945,105.346,89.68,105.418,89.414,105.418z M28.306,103.799c-0.288,0-0.579-0.089-0.826-0.276
		c-0.25-0.186-0.5-0.378-0.747-0.569c-0.601-0.465-0.711-1.33-0.246-1.931c0.467-0.6,1.331-0.708,1.932-0.248
		c0.237,0.185,0.475,0.367,0.714,0.545c0.608,0.458,0.731,1.321,0.274,1.93C29.136,103.609,28.723,103.799,28.306,103.799z
		 M93.824,102.126c-0.395,0-0.787-0.168-1.06-0.496c-0.485-0.584-0.406-1.452,0.179-1.938c0.229-0.191,0.458-0.384,0.684-0.578
		c0.58-0.495,1.448-0.427,1.942,0.148c0.494,0.578,0.427,1.446-0.149,1.943c-0.238,0.201-0.476,0.404-0.716,0.604
		C94.446,102.022,94.134,102.126,93.824,102.126z M24.075,100.275c-0.334,0-0.67-0.119-0.936-0.364
		c-0.23-0.213-0.458-0.428-0.685-0.644c-0.549-0.524-0.57-1.397-0.045-1.948c0.528-0.549,1.398-0.566,1.948-0.044
		c0.215,0.207,0.433,0.409,0.653,0.613c0.558,0.516,0.592,1.387,0.076,1.947C24.814,100.128,24.444,100.275,24.075,100.275z
		 M97.869,98.397c-0.349,0-0.697-0.131-0.965-0.394c-0.542-0.532-0.552-1.405-0.02-1.947c0.208-0.212,0.415-0.427,0.619-0.643
		c0.523-0.554,1.393-0.578,1.945-0.058c0.555,0.523,0.58,1.394,0.058,1.946c-0.216,0.229-0.434,0.456-0.655,0.682
		C98.582,98.26,98.224,98.397,97.869,98.397z M101.509,94.27c-0.3,0-0.601-0.097-0.853-0.296c-0.597-0.474-0.697-1.34-0.226-1.935
		c0.186-0.236,0.37-0.471,0.553-0.708c0.461-0.604,1.325-0.72,1.931-0.254c0.602,0.463,0.716,1.326,0.253,1.928
		c-0.191,0.25-0.383,0.496-0.577,0.742C102.318,94.09,101.915,94.27,101.509,94.27z M104.704,89.786
		c-0.254,0-0.512-0.07-0.742-0.218c-0.64-0.411-0.827-1.263-0.417-1.903c0.16-0.248,0.318-0.501,0.472-0.754
		c0.399-0.65,1.248-0.851,1.894-0.455c0.649,0.398,0.853,1.247,0.455,1.893c-0.165,0.271-0.331,0.537-0.502,0.803
		C105.601,89.562,105.156,89.786,104.704,89.786z M107.417,84.994c-0.208,0-0.417-0.046-0.616-0.145
		c-0.679-0.34-0.955-1.167-0.616-1.846c0.133-0.269,0.266-0.537,0.395-0.807c0.329-0.687,1.149-0.976,1.836-0.646
		c0.686,0.328,0.975,1.15,0.646,1.836c-0.136,0.283-0.273,0.567-0.414,0.848C108.408,84.716,107.922,84.994,107.417,84.994z
		 M29.883,81.922c-0.747,0-1.36-0.597-1.376-1.348c-0.015-0.761,0.588-1.389,1.348-1.406c0.293-0.005,0.585-0.016,0.878-0.029
		c0.793-0.035,1.404,0.548,1.443,1.306c0.037,0.76-0.547,1.406-1.307,1.443c-0.32,0.016-0.64,0.028-0.957,0.034
		C29.903,81.922,29.892,81.922,29.883,81.922z M25.306,81.691c-0.057,0-0.115-0.004-0.174-0.013c-0.322-0.04-0.64-0.086-0.955-0.136
		c-0.751-0.123-1.261-0.828-1.14-1.579c0.12-0.751,0.832-1.268,1.577-1.14c0.285,0.045,0.573,0.088,0.863,0.123
		c0.754,0.096,1.289,0.785,1.194,1.538C26.583,81.183,25.99,81.691,25.306,81.691z M35.356,81.366c-0.653,0-1.233-0.469-1.353-1.132
		c-0.136-0.749,0.361-1.466,1.109-1.601c0.29-0.054,0.576-0.11,0.864-0.17c0.738-0.162,1.475,0.32,1.63,1.064
		c0.156,0.745-0.321,1.475-1.065,1.63c-0.311,0.066-0.624,0.128-0.938,0.184C35.521,81.356,35.437,81.366,35.356,81.366z
		 M19.965,80.394c-0.164,0-0.33-0.026-0.491-0.089c-0.311-0.119-0.617-0.244-0.916-0.378c-0.695-0.308-1.009-1.123-0.7-1.817
		c0.308-0.693,1.122-1.008,1.817-0.699c0.254,0.112,0.515,0.22,0.782,0.322c0.71,0.271,1.066,1.067,0.794,1.777
		C21.042,80.059,20.519,80.394,19.965,80.394z M109.618,79.945c-0.16,0-0.324-0.027-0.482-0.086
		c-0.713-0.269-1.073-1.063-0.806-1.773c0.104-0.28,0.208-0.563,0.307-0.844c0.255-0.717,1.044-1.092,1.759-0.834
		c0.716,0.255,1.091,1.043,0.835,1.758c-0.106,0.297-0.213,0.592-0.323,0.887C110.7,79.605,110.177,79.945,109.618,79.945z
		 M40.669,79.934c-0.56,0-1.087-0.346-1.293-0.903c-0.262-0.712,0.104-1.505,0.818-1.769c0.274-0.1,0.547-0.202,0.817-0.312
		c0.703-0.28,1.506,0.056,1.792,0.763c0.284,0.704-0.058,1.505-0.763,1.791c-0.294,0.118-0.594,0.233-0.895,0.345
		C40.987,79.906,40.827,79.934,40.669,79.934z M15.225,77.636c-0.284,0-0.57-0.088-0.814-0.269c-0.256-0.188-0.508-0.372-0.752-0.56
		c-0.607-0.459-0.726-1.322-0.266-1.928c0.458-0.606,1.321-0.728,1.928-0.267c0.236,0.179,0.477,0.356,0.719,0.534
		c0.613,0.452,0.745,1.313,0.295,1.926C16.066,77.44,15.647,77.636,15.225,77.636z M111.279,74.696
		c-0.113,0-0.229-0.013-0.343-0.045c-0.737-0.188-1.181-0.94-0.989-1.676c0.074-0.288,0.146-0.577,0.217-0.87
		c0.177-0.738,0.92-1.192,1.661-1.015c0.739,0.179,1.194,0.92,1.016,1.66c-0.074,0.305-0.15,0.608-0.229,0.911
		C112.452,74.283,111.892,74.696,111.279,74.696z M11.032,74.082c-0.367,0-0.734-0.146-1.004-0.436
		c-0.229-0.243-0.449-0.494-0.662-0.748c-0.485-0.584-0.407-1.452,0.179-1.938c0.585-0.489,1.453-0.41,1.938,0.179
		c0.179,0.214,0.363,0.421,0.554,0.626c0.52,0.556,0.491,1.426-0.063,1.943C11.708,73.959,11.37,74.082,11.032,74.082z
		 M8.144,69.446c-0.561,0-1.087-0.345-1.293-0.901c-0.113-0.308-0.218-0.626-0.316-0.953c-0.215-0.73,0.2-1.496,0.929-1.712
		c0.73-0.212,1.496,0.2,1.713,0.928c0.08,0.271,0.167,0.533,0.26,0.786c0.262,0.714-0.104,1.505-0.817,1.768
		C8.461,69.418,8.301,69.446,8.144,69.446z M112.381,69.304c-0.066,0-0.135-0.004-0.202-0.015c-0.754-0.109-1.273-0.812-1.161-1.563
		c0.043-0.297,0.085-0.593,0.124-0.89c0.102-0.751,0.785-1.282,1.546-1.185c0.755,0.103,1.285,0.794,1.184,1.547
		c-0.04,0.312-0.084,0.622-0.13,0.931C113.639,68.813,113.052,69.304,112.381,69.304z M7.095,64.063
		c-0.719,0-1.324-0.558-1.372-1.286c-0.021-0.313-0.037-0.634-0.046-0.963c-0.024-0.76,0.573-1.395,1.332-1.418
		c0.751-0.054,1.396,0.572,1.42,1.332c0.01,0.295,0.024,0.585,0.043,0.868c0.05,0.759-0.525,1.414-1.285,1.466
		C7.157,64.063,7.126,64.063,7.095,64.063z M112.915,63.827c-0.021,0-0.042,0-0.061-0.001c-0.76-0.034-1.35-0.678-1.317-1.436
		c0.014-0.298,0.026-0.598,0.035-0.897c0.022-0.761,0.696-1.352,1.416-1.337c0.76,0.023,1.357,0.658,1.335,1.42
		c-0.009,0.31-0.021,0.623-0.034,0.936C114.258,63.25,113.648,63.827,112.915,63.827z M7.112,58.562c-0.024,0-0.049,0-0.074-0.001
		c-0.759-0.041-1.343-0.688-1.303-1.446c0.018-0.314,0.037-0.626,0.058-0.938c0.05-0.76,0.69-1.335,1.466-1.282
		c0.759,0.053,1.333,0.709,1.281,1.468c-0.021,0.299-0.04,0.597-0.055,0.896C8.448,57.992,7.84,58.562,7.112,58.562z
		 M112.886,58.324c-0.726,0-1.331-0.563-1.374-1.297c-0.018-0.299-0.037-0.596-0.06-0.894c-0.056-0.76,0.514-1.418,1.271-1.475
		c0.765-0.045,1.418,0.514,1.475,1.271c0.022,0.312,0.043,0.624,0.061,0.936c0.044,0.761-0.534,1.411-1.293,1.455
		C112.939,58.323,112.911,58.324,112.886,58.324z M7.682,53.088c-0.071,0-0.144-0.004-0.216-0.016
		c-0.75-0.117-1.264-0.821-1.146-1.574c0.048-0.31,0.099-0.617,0.153-0.926c0.128-0.75,0.85-1.252,1.59-1.122
		c0.75,0.129,1.252,0.843,1.123,1.59c-0.051,0.296-0.1,0.59-0.147,0.887C8.934,52.604,8.348,53.088,7.682,53.088z M112.289,52.854
		c-0.662,0-1.247-0.48-1.356-1.156c-0.048-0.294-0.098-0.591-0.149-0.882c-0.135-0.749,0.364-1.464,1.111-1.599
		c0.743-0.134,1.464,0.364,1.599,1.112c0.054,0.308,0.107,0.617,0.157,0.927c0.123,0.749-0.387,1.457-1.137,1.58
		C112.437,52.849,112.363,52.854,112.289,52.854z M8.816,47.705c-0.118,0-0.237-0.016-0.356-0.047
		c-0.734-0.197-1.171-0.95-0.976-1.686c0.081-0.302,0.164-0.605,0.25-0.905c0.206-0.732,0.97-1.157,1.7-0.949
		c0.731,0.208,1.156,0.969,0.949,1.7c-0.082,0.288-0.161,0.576-0.239,0.864C9.981,47.298,9.425,47.705,8.816,47.705z
		 M111.132,47.475c-0.607,0-1.163-0.404-1.328-1.019c-0.078-0.287-0.159-0.573-0.241-0.859c-0.213-0.729,0.208-1.493,0.938-1.705
		c0.729-0.212,1.494,0.206,1.706,0.938c0.087,0.303,0.173,0.604,0.255,0.909c0.197,0.734-0.237,1.49-0.971,1.688
		C111.371,47.459,111.25,47.475,111.132,47.475z M10.507,42.468c-0.164,0-0.33-0.028-0.491-0.09
		c-0.711-0.271-1.066-1.067-0.796-1.777c0.111-0.295,0.228-0.589,0.345-0.882c0.285-0.704,1.085-1.047,1.791-0.763
		c0.706,0.285,1.047,1.088,0.763,1.793c-0.112,0.275-0.221,0.555-0.327,0.833C11.583,42.131,11.06,42.468,10.507,42.468z
		 M109.418,42.245c-0.553,0-1.075-0.334-1.285-0.881c-0.107-0.276-0.216-0.553-0.329-0.828c-0.288-0.704,0.051-1.509,0.754-1.794
		c0.706-0.289,1.508,0.05,1.796,0.754c0.119,0.291,0.234,0.583,0.349,0.877c0.273,0.71-0.08,1.507-0.789,1.78
		C109.75,42.216,109.583,42.245,109.418,42.245z M12.736,37.432c-0.209,0-0.422-0.047-0.622-0.149
		c-0.678-0.344-0.949-1.173-0.604-1.852c0.141-0.28,0.286-0.559,0.433-0.835c0.356-0.673,1.189-0.93,1.86-0.574
		c0.673,0.355,0.929,1.188,0.574,1.861c-0.14,0.265-0.277,0.527-0.414,0.795C13.722,37.156,13.239,37.432,12.736,37.432z
		 M107.168,37.226c-0.499,0-0.98-0.272-1.225-0.746c-0.137-0.268-0.275-0.53-0.415-0.792c-0.359-0.672-0.104-1.507,0.566-1.864
		c0.668-0.357,1.505-0.104,1.862,0.566c0.147,0.275,0.292,0.552,0.435,0.828c0.349,0.676,0.082,1.507-0.594,1.855
		C107.595,37.176,107.38,37.226,107.168,37.226z M15.48,32.657c-0.255,0-0.515-0.071-0.745-0.22
		c-0.639-0.412-0.824-1.265-0.411-1.903c0.17-0.267,0.344-0.528,0.52-0.79c0.425-0.631,1.279-0.798,1.911-0.373
		c0.632,0.424,0.799,1.278,0.375,1.91c-0.167,0.247-0.33,0.495-0.491,0.744C16.375,32.435,15.932,32.657,15.48,32.657z
		 M104.407,32.469c-0.449,0-0.89-0.221-1.154-0.625c-0.164-0.248-0.328-0.496-0.494-0.742c-0.426-0.63-0.263-1.486,0.367-1.911
		c0.629-0.428,1.486-0.264,1.912,0.366c0.177,0.261,0.35,0.52,0.521,0.783c0.415,0.637,0.236,1.489-0.4,1.906
		C104.926,32.396,104.666,32.469,104.407,32.469z M18.703,28.193c-0.303,0-0.607-0.099-0.862-0.304
		c-0.593-0.477-0.687-1.344-0.21-1.937c0.198-0.245,0.396-0.488,0.598-0.729c0.486-0.584,1.354-0.662,1.939-0.175
		c0.583,0.485,0.663,1.353,0.175,1.938c-0.191,0.229-0.379,0.46-0.565,0.693C19.505,28.018,19.106,28.193,18.703,28.193z
		 M101.168,28.021c-0.4,0-0.797-0.174-1.071-0.509c-0.187-0.231-0.376-0.461-0.569-0.689c-0.489-0.584-0.413-1.451,0.17-1.941
		c0.582-0.488,1.451-0.411,1.94,0.171c0.2,0.239,0.399,0.481,0.598,0.726c0.479,0.591,0.388,1.457-0.203,1.936
		C101.78,27.921,101.472,28.021,101.168,28.021z M22.371,24.089c-0.351,0-0.7-0.133-0.968-0.399
		c-0.541-0.536-0.545-1.407-0.01-1.947c0.221-0.224,0.444-0.446,0.671-0.667c0.543-0.527,1.417-0.517,1.947,0.028
		c0.529,0.545,0.517,1.417-0.029,1.948c-0.213,0.205-0.423,0.416-0.631,0.627C23.08,23.953,22.725,24.089,22.371,24.089z
		 M97.485,23.933c-0.352,0-0.703-0.134-0.972-0.402c-0.212-0.21-0.425-0.422-0.642-0.628c-0.545-0.53-0.559-1.402-0.029-1.948
		c0.528-0.545,1.4-0.56,1.945-0.031c0.225,0.219,0.447,0.438,0.668,0.657c0.539,0.537,0.54,1.409,0.004,1.947
		C98.19,23.796,97.837,23.933,97.485,23.933z M26.441,20.383c-0.399,0-0.794-0.172-1.066-0.506
		c-0.481-0.588-0.395-1.456,0.193-1.938c0.243-0.198,0.486-0.394,0.731-0.586c0.595-0.474,1.463-0.374,1.934,0.222
		c0.473,0.597,0.373,1.464-0.223,1.935c-0.234,0.185-0.467,0.372-0.697,0.561C27.056,20.28,26.748,20.383,26.441,20.383z
		 M93.398,20.244c-0.305,0-0.614-0.103-0.869-0.311c-0.229-0.188-0.462-0.374-0.697-0.557c-0.597-0.468-0.703-1.334-0.233-1.932
		c0.469-0.599,1.335-0.703,1.933-0.234c0.249,0.195,0.496,0.391,0.739,0.589c0.587,0.482,0.676,1.349,0.195,1.939
		C94.193,20.071,93.798,20.244,93.398,20.244z M30.87,17.118c-0.446,0-0.885-0.217-1.15-0.618c-0.419-0.634-0.244-1.489,0.391-1.908
		c0.26-0.172,0.524-0.342,0.789-0.51c0.643-0.407,1.493-0.219,1.9,0.422c0.408,0.642,0.218,1.493-0.423,1.901
		c-0.252,0.159-0.501,0.321-0.75,0.484C31.394,17.045,31.131,17.118,30.87,17.118z M88.954,16.997c-0.259,0-0.52-0.073-0.753-0.224
		c-0.25-0.165-0.5-0.325-0.754-0.484c-0.644-0.406-0.836-1.255-0.431-1.9c0.405-0.644,1.254-0.836,1.899-0.43
		c0.266,0.167,0.529,0.336,0.793,0.508c0.635,0.416,0.814,1.27,0.399,1.907C89.842,16.777,89.403,16.997,88.954,16.997z
		 M35.612,14.331c-0.498,0-0.977-0.27-1.223-0.741c-0.35-0.676-0.088-1.505,0.587-1.857c0.278-0.145,0.556-0.286,0.838-0.425
		c0.68-0.339,1.505-0.063,1.846,0.619c0.338,0.681,0.061,1.507-0.621,1.846c-0.266,0.132-0.531,0.267-0.794,0.404
		C36.043,14.281,35.826,14.331,35.612,14.331z M84.196,14.227c-0.214,0-0.429-0.049-0.63-0.154c-0.266-0.136-0.532-0.27-0.8-0.401
		c-0.682-0.337-0.963-1.162-0.627-1.844c0.336-0.683,1.162-0.962,1.842-0.629c0.283,0.141,0.565,0.281,0.844,0.427
		c0.676,0.347,0.942,1.179,0.595,1.854C85.177,13.955,84.696,14.227,84.196,14.227z M40.616,12.053
		c-0.548,0-1.067-0.331-1.281-0.871c-0.279-0.708,0.068-1.508,0.776-1.787c0.291-0.116,0.584-0.227,0.879-0.339
		c0.712-0.264,1.505,0.096,1.771,0.808c0.267,0.715-0.096,1.506-0.808,1.773c-0.279,0.104-0.557,0.211-0.834,0.32
		C40.956,12.022,40.784,12.053,40.616,12.053z M79.174,11.967c-0.166,0-0.336-0.031-0.5-0.095c-0.278-0.106-0.557-0.213-0.837-0.317
		c-0.714-0.262-1.08-1.054-0.817-1.768c0.263-0.712,1.053-1.078,1.767-0.816c0.296,0.109,0.592,0.22,0.884,0.336
		c0.71,0.274,1.06,1.073,0.785,1.782C80.244,11.634,79.724,11.967,79.174,11.967z M45.834,10.309c-0.603,0-1.157-0.401-1.325-1.01
		c-0.204-0.734,0.227-1.492,0.96-1.696c0.301-0.084,0.605-0.164,0.908-0.242c0.737-0.19,1.487,0.251,1.678,0.988
		c0.19,0.735-0.252,1.485-0.988,1.678c-0.288,0.074-0.577,0.151-0.865,0.231C46.079,10.293,45.956,10.309,45.834,10.309z
		 M73.943,10.245c-0.12,0-0.24-0.015-0.362-0.049c-0.288-0.077-0.575-0.154-0.865-0.227c-0.735-0.188-1.181-0.937-0.996-1.674
		c0.188-0.737,0.937-1.182,1.674-0.994c0.303,0.076,0.608,0.156,0.91,0.239c0.734,0.198,1.167,0.955,0.967,1.689
		C75.105,9.842,74.55,10.245,73.943,10.245z M51.206,9.119c-0.66,0-1.243-0.477-1.356-1.151c-0.125-0.749,0.382-1.458,1.131-1.584
		c0.309-0.053,0.619-0.101,0.93-0.147c0.745-0.113,1.452,0.405,1.565,1.159c0.112,0.751-0.406,1.453-1.158,1.563
		c-0.295,0.045-0.59,0.092-0.883,0.141C51.357,9.112,51.281,9.119,51.206,9.119z M68.567,9.081c-0.074,0-0.148-0.007-0.221-0.019
		c-0.295-0.047-0.591-0.093-0.885-0.136c-0.753-0.108-1.276-0.807-1.166-1.56c0.11-0.752,0.813-1.277,1.559-1.166
		c0.311,0.046,0.621,0.093,0.93,0.145c0.75,0.12,1.262,0.828,1.139,1.577C69.815,8.599,69.229,9.081,68.567,9.081z M56.674,8.495
		c-0.723,0-1.329-0.561-1.374-1.294c-0.046-0.757,0.531-1.411,1.289-1.458c0.313-0.019,0.626-0.035,0.938-0.05
		c0.778-0.024,1.404,0.555,1.438,1.313C59,7.767,58.413,8.41,57.654,8.445c-0.299,0.012-0.597,0.028-0.894,0.047
		C56.73,8.494,56.701,8.495,56.674,8.495z M63.096,8.481c-0.026,0-0.052-0.002-0.08-0.004c-0.299-0.016-0.596-0.031-0.895-0.044
		c-0.759-0.03-1.35-0.67-1.32-1.432c0.033-0.759,0.645-1.354,1.433-1.318c0.313,0.012,0.627,0.028,0.94,0.046
		c0.759,0.043,1.339,0.693,1.294,1.453C64.428,7.915,63.82,8.481,63.096,8.481z"/>
	<path fill="#E75631" d="M29.282,101.203c-0.046,0-0.092-0.001-0.138-0.008c-0.331-0.031-0.66-0.074-0.985-0.124
		c-0.751-0.117-1.267-0.82-1.15-1.571c0.116-0.751,0.819-1.261,1.572-1.149c0.276,0.043,0.555,0.076,0.835,0.104
		c0.758,0.076,1.31,0.75,1.234,1.507C30.58,100.674,29.981,101.203,29.282,101.203z M33.857,101.086
		c-0.679,0-1.271-0.503-1.363-1.195c-0.101-0.753,0.43-1.446,1.183-1.546c0.285-0.038,0.569-0.082,0.852-0.131
		c0.753-0.135,1.461,0.368,1.594,1.12c0.131,0.747-0.37,1.462-1.118,1.593c-0.321,0.056-0.643,0.105-0.963,0.148
		C33.979,101.082,33.918,101.086,33.857,101.086z M39.207,99.792c-0.573,0-1.108-0.36-1.303-0.935
		c-0.246-0.719,0.139-1.5,0.859-1.746c0.276-0.094,0.552-0.194,0.822-0.297c0.709-0.266,1.506,0.092,1.774,0.803
		c0.269,0.711-0.09,1.506-0.802,1.774c-0.299,0.112-0.599,0.222-0.905,0.325C39.504,99.768,39.354,99.792,39.207,99.792z
		 M24.041,99.639c-0.227,0-0.457-0.056-0.668-0.172c-0.296-0.166-0.589-0.344-0.875-0.532c-0.635-0.419-0.808-1.273-0.389-1.906
		c0.419-0.637,1.273-0.813,1.908-0.392c0.227,0.151,0.458,0.29,0.694,0.422c0.665,0.369,0.904,1.207,0.535,1.872
		C24.994,99.384,24.523,99.639,24.041,99.639z M44.244,97.573c-0.489,0-0.962-0.262-1.211-0.722
		c-0.362-0.671-0.113-1.505,0.556-1.867c0.259-0.14,0.513-0.283,0.759-0.427c0.655-0.386,1.499-0.166,1.884,0.49
		c0.384,0.656,0.165,1.5-0.492,1.885c-0.273,0.16-0.553,0.318-0.841,0.474C44.69,97.521,44.465,97.573,44.244,97.573z
		 M48.774,94.458c-0.373,0-0.746-0.151-1.017-0.448c-0.513-0.563-0.472-1.434,0.091-1.945c0.213-0.192,0.407-0.383,0.583-0.569
		c0.522-0.553,1.396-0.576,1.947-0.056c0.552,0.522,0.577,1.395,0.055,1.947c-0.22,0.233-0.464,0.471-0.731,0.715
		C49.438,94.342,49.106,94.458,48.774,94.458z"/>
</g>
</svg>
