<?xml version="1.0" encoding="utf-8"?>
<!-- Generator: Adobe Illustrator 16.0.3, SVG Export Plug-In . SVG Version: 6.00 Build 0)  -->
<!DOCTYPE svg PUBLIC "-//W3C//DTD SVG 1.1//EN" "http://www.w3.org/Graphics/SVG/1.1/DTD/svg11.dtd">
<svg version="1.1" id="Capa_1" xmlns="http://www.w3.org/2000/svg" xmlns:xlink="http://www.w3.org/1999/xlink" x="0px" y="0px"
	 width="180px" height="180px" viewBox="0 0 180 180" enable-background="new 0 0 180 180" xml:space="preserve">
<g>
	<path fill="#FFFFFF" d="M64.469,143.855l-10.476,19.702c12.065,6.186,23.914,9.196,36.178,9.196c8.483,0,16.981-1.422,25.983-4.347
		c42.299-13.744,65.747-58.979,52.84-101.349l-21.45,6.97c1.643,5.489,2.475,11.188,2.475,16.963
		c0,32.588-26.514,59.102-59.103,59.102C81.739,150.093,72.629,147.94,64.469,143.855z"/>
	<path fill="#FFFFFF" d="M51.297,162.122l10.478-19.705c-18.521-10.508-29.961-30.072-29.961-51.426c0-2.993,0.226-5.99,0.671-8.934
		l-22.143-3.904C4.892,112.563,20.826,145.232,51.297,162.122z"/>
	<path fill="#FFFFFF" d="M24.05,44.102c-6.646,9.487-10.968,19.672-13.177,31.043l22.149,3.905
		c1.591-7.729,4.778-15.168,9.288-21.683L24.05,44.102z"/>
	<path fill="#FFFFFF" d="M67.446,36.735L58.967,15.75c-13.814,5.826-24.128,13.885-33.123,25.88l18.268,13.272
		C50.248,46.952,58.266,40.711,67.446,36.735z"/>
	<path fill="#FFFFFF" d="M89.415,31.907V9.239c-9.704,0.162-18.557,1.884-27.615,5.367l8.479,20.988
		C76.411,33.308,82.833,32.07,89.415,31.907z"/>
	<path fill="#FFFFFF" d="M92.469,9.24v22.668c24.469,0.633,45.916,16.174,54.124,39.218l21.458-6.973
		C156.709,31.212,127.303,9.848,92.469,9.24z"/>
</g>
</svg>
